<mxfile host="app.diagrams.net" modified="2024-01-29T13:55:35.379Z" agent="Mozilla/5.0 (Windows NT 10.0; Win64; x64) AppleWebKit/537.36 (KHTML, like Gecko) Chrome/121.0.0.0 Safari/537.36 Edg/121.0.0.0" etag="P5XArI40k9c6T_l6o7rm" version="23.0.2" type="github">
  <diagram name="第 1 页" id="7EdAaY0qWJ7n02y7rGy0">
    <mxGraphModel dx="1002" dy="577" grid="1" gridSize="10" guides="1" tooltips="1" connect="1" arrows="1" fold="1" page="1" pageScale="1" pageWidth="827" pageHeight="1169" math="0" shadow="0">
      <root>
        <mxCell id="0" />
        <mxCell id="1" parent="0" />
        <mxCell id="r5Kh5ZWrlzcaFiytxaW--2" value="" style="rounded=0;whiteSpace=wrap;html=1;fillColor=#d5e8d4;strokeColor=#82b366;" parent="1" vertex="1">
          <mxGeometry x="33" y="290" width="667" height="170" as="geometry" />
        </mxCell>
        <mxCell id="r5Kh5ZWrlzcaFiytxaW--3" value="" style="rounded=0;whiteSpace=wrap;html=1;fillColor=#fff2cc;strokeColor=#d6b656;" parent="1" vertex="1">
          <mxGeometry x="33" y="160" width="667" height="126" as="geometry" />
        </mxCell>
        <mxCell id="r5Kh5ZWrlzcaFiytxaW--7" value="" style="rounded=0;whiteSpace=wrap;html=1;" parent="1" vertex="1">
          <mxGeometry x="90" y="186" width="580" height="90" as="geometry" />
        </mxCell>
        <mxCell id="r5Kh5ZWrlzcaFiytxaW--9" value="&lt;font face=&quot;宋体&quot;&gt;&lt;b&gt;GPU物理地址&lt;/b&gt;&lt;/font&gt;" style="text;html=1;strokeColor=none;fillColor=none;align=center;verticalAlign=middle;whiteSpace=wrap;rounded=0;" parent="1" vertex="1">
          <mxGeometry x="570" y="156" width="80" height="30" as="geometry" />
        </mxCell>
        <mxCell id="r5Kh5ZWrlzcaFiytxaW--10" value="" style="shape=table;startSize=0;container=1;collapsible=0;childLayout=tableLayout;" parent="1" vertex="1">
          <mxGeometry x="130" y="216" width="90" height="30" as="geometry" />
        </mxCell>
        <mxCell id="r5Kh5ZWrlzcaFiytxaW--11" value="" style="shape=tableRow;horizontal=0;startSize=0;swimlaneHead=0;swimlaneBody=0;strokeColor=inherit;top=0;left=0;bottom=0;right=0;collapsible=0;dropTarget=0;fillColor=none;points=[[0,0.5],[1,0.5]];portConstraint=eastwest;" parent="r5Kh5ZWrlzcaFiytxaW--10" vertex="1">
          <mxGeometry width="90" height="30" as="geometry" />
        </mxCell>
        <mxCell id="r5Kh5ZWrlzcaFiytxaW--12" value="" style="shape=partialRectangle;html=1;whiteSpace=wrap;connectable=0;strokeColor=inherit;overflow=hidden;fillColor=none;top=0;left=0;bottom=0;right=0;pointerEvents=1;" parent="r5Kh5ZWrlzcaFiytxaW--11" vertex="1">
          <mxGeometry width="23" height="30" as="geometry">
            <mxRectangle width="23" height="30" as="alternateBounds" />
          </mxGeometry>
        </mxCell>
        <mxCell id="r5Kh5ZWrlzcaFiytxaW--13" value="" style="shape=partialRectangle;html=1;whiteSpace=wrap;connectable=0;strokeColor=inherit;overflow=hidden;fillColor=none;top=0;left=0;bottom=0;right=0;pointerEvents=1;" parent="r5Kh5ZWrlzcaFiytxaW--11" vertex="1">
          <mxGeometry x="23" width="22" height="30" as="geometry">
            <mxRectangle width="22" height="30" as="alternateBounds" />
          </mxGeometry>
        </mxCell>
        <mxCell id="r5Kh5ZWrlzcaFiytxaW--14" value="" style="shape=partialRectangle;html=1;whiteSpace=wrap;connectable=0;strokeColor=inherit;overflow=hidden;fillColor=none;top=0;left=0;bottom=0;right=0;pointerEvents=1;" parent="r5Kh5ZWrlzcaFiytxaW--11" vertex="1">
          <mxGeometry x="45" width="23" height="30" as="geometry">
            <mxRectangle width="23" height="30" as="alternateBounds" />
          </mxGeometry>
        </mxCell>
        <mxCell id="r5Kh5ZWrlzcaFiytxaW--15" value="" style="shape=partialRectangle;html=1;whiteSpace=wrap;connectable=0;strokeColor=inherit;overflow=hidden;fillColor=none;top=0;left=0;bottom=0;right=0;pointerEvents=1;" parent="r5Kh5ZWrlzcaFiytxaW--11" vertex="1">
          <mxGeometry x="68" width="22" height="30" as="geometry">
            <mxRectangle width="22" height="30" as="alternateBounds" />
          </mxGeometry>
        </mxCell>
        <mxCell id="r5Kh5ZWrlzcaFiytxaW--16" value="&lt;b&gt;&lt;font face=&quot;宋体&quot;&gt;计算流&lt;/font&gt;&lt;/b&gt;" style="text;html=1;strokeColor=none;fillColor=none;align=center;verticalAlign=middle;whiteSpace=wrap;rounded=0;" parent="1" vertex="1">
          <mxGeometry x="142" y="190" width="60" height="30" as="geometry" />
        </mxCell>
        <mxCell id="r5Kh5ZWrlzcaFiytxaW--17" value="" style="rounded=0;whiteSpace=wrap;html=1;" parent="1" vertex="1">
          <mxGeometry x="90" y="320" width="580" height="120" as="geometry" />
        </mxCell>
        <mxCell id="r5Kh5ZWrlzcaFiytxaW--18" style="edgeStyle=orthogonalEdgeStyle;rounded=1;orthogonalLoop=1;jettySize=auto;html=1;entryX=0.25;entryY=0;entryDx=0;entryDy=0;startArrow=classic;" parent="1" target="r5Kh5ZWrlzcaFiytxaW--47" edge="1">
          <mxGeometry relative="1" as="geometry">
            <mxPoint x="191" y="276" as="sourcePoint" />
            <mxPoint x="193.51" y="369.19" as="targetPoint" />
          </mxGeometry>
        </mxCell>
        <mxCell id="r5Kh5ZWrlzcaFiytxaW--19" style="edgeStyle=orthogonalEdgeStyle;rounded=1;orthogonalLoop=1;jettySize=auto;html=1;exitX=1;exitY=0.5;exitDx=0;exitDy=0;entryX=0;entryY=0.5;entryDx=0;entryDy=0;startArrow=classic;endArrow=none;endFill=0;" parent="1" edge="1">
          <mxGeometry relative="1" as="geometry">
            <mxPoint x="220" y="220" as="sourcePoint" />
            <mxPoint x="272" y="220" as="targetPoint" />
          </mxGeometry>
        </mxCell>
        <mxCell id="r5Kh5ZWrlzcaFiytxaW--20" value="&lt;font size=&quot;1&quot; style=&quot;&quot;&gt;&lt;b style=&quot;font-size: 19px;&quot;&gt;&lt;font face=&quot;Times New Roman&quot;&gt;GPU&lt;/font&gt;&lt;font face=&quot;宋体&quot;&gt;缓存&lt;/font&gt;&lt;/b&gt;&lt;/font&gt;" style="rounded=0;whiteSpace=wrap;html=1;" parent="1" vertex="1">
          <mxGeometry x="440" y="201" width="180" height="60" as="geometry" />
        </mxCell>
        <mxCell id="r5Kh5ZWrlzcaFiytxaW--21" style="edgeStyle=orthogonalEdgeStyle;rounded=0;orthogonalLoop=1;jettySize=auto;html=1;entryX=0;entryY=0.5;entryDx=0;entryDy=0;startArrow=classic;startFill=1;" parent="1" source="r5Kh5ZWrlzcaFiytxaW--22" target="r5Kh5ZWrlzcaFiytxaW--20" edge="1">
          <mxGeometry relative="1" as="geometry" />
        </mxCell>
        <mxCell id="r5Kh5ZWrlzcaFiytxaW--22" value="&lt;font face=&quot;宋体&quot; style=&quot;font-size: 19px;&quot;&gt;&lt;b style=&quot;&quot;&gt;张量管理&lt;/b&gt;&lt;/font&gt;" style="rounded=0;whiteSpace=wrap;html=1;fillColor=#CCCCCC;fontColor=#333333;strokeColor=#666666;" parent="1" vertex="1">
          <mxGeometry x="272" y="206" width="100" height="50" as="geometry" />
        </mxCell>
        <mxCell id="r5Kh5ZWrlzcaFiytxaW--23" style="rounded=1;orthogonalLoop=1;jettySize=auto;html=1;exitX=1;exitY=0.5;exitDx=0;exitDy=0;entryX=0;entryY=0.5;entryDx=0;entryDy=0;startArrow=none;edgeStyle=orthogonalEdgeStyle;curved=1;startFill=0;" parent="1" edge="1">
          <mxGeometry relative="1" as="geometry">
            <mxPoint x="220" y="245" as="sourcePoint" />
            <mxPoint x="272" y="245" as="targetPoint" />
          </mxGeometry>
        </mxCell>
        <mxCell id="r5Kh5ZWrlzcaFiytxaW--24" value="&lt;b&gt;&lt;font face=&quot;宋体&quot;&gt;更新&lt;/font&gt;&lt;/b&gt;" style="text;html=1;strokeColor=none;fillColor=none;align=center;verticalAlign=middle;whiteSpace=wrap;rounded=0;" parent="1" vertex="1">
          <mxGeometry x="215" y="242" width="60" height="30" as="geometry" />
        </mxCell>
        <mxCell id="r5Kh5ZWrlzcaFiytxaW--27" value="" style="rounded=0;whiteSpace=wrap;html=1;dashed=1;fillColor=none;" parent="1" vertex="1">
          <mxGeometry x="110" y="330" width="507" height="100" as="geometry" />
        </mxCell>
        <mxCell id="r5Kh5ZWrlzcaFiytxaW--28" style="rounded=1;orthogonalLoop=1;jettySize=auto;html=1;entryX=1;entryY=0.5;entryDx=0;entryDy=0;exitX=0;exitY=0.5;exitDx=0;exitDy=0;startArrow=classic;" parent="1" source="r5Kh5ZWrlzcaFiytxaW--30" edge="1">
          <mxGeometry relative="1" as="geometry">
            <mxPoint x="370" y="386.2615989395256" as="sourcePoint" />
            <mxPoint x="273.5" y="380" as="targetPoint" />
          </mxGeometry>
        </mxCell>
        <mxCell id="r5Kh5ZWrlzcaFiytxaW--29" style="edgeStyle=orthogonalEdgeStyle;rounded=0;orthogonalLoop=1;jettySize=auto;html=1;exitX=1;exitY=0.5;exitDx=0;exitDy=0;entryX=0;entryY=0.5;entryDx=0;entryDy=0;startArrow=classic;startFill=1;" parent="1" source="r5Kh5ZWrlzcaFiytxaW--30" target="r5Kh5ZWrlzcaFiytxaW--34" edge="1">
          <mxGeometry relative="1" as="geometry" />
        </mxCell>
        <mxCell id="r5Kh5ZWrlzcaFiytxaW--30" value="" style="rounded=0;whiteSpace=wrap;html=1;fillColor=#CCCCCC;fontColor=#333333;strokeColor=#666666;" parent="1" vertex="1">
          <mxGeometry x="334" y="335" width="120" height="90" as="geometry" />
        </mxCell>
        <mxCell id="r5Kh5ZWrlzcaFiytxaW--31" value="&lt;b&gt;&lt;font face=&quot;宋体&quot; style=&quot;font-size: 14px;&quot;&gt;动态分析&lt;/font&gt;&lt;/b&gt;" style="text;html=1;strokeColor=none;fillColor=none;align=center;verticalAlign=middle;whiteSpace=wrap;rounded=0;" parent="1" vertex="1">
          <mxGeometry x="360" y="335" width="70" height="30" as="geometry" />
        </mxCell>
        <mxCell id="r5Kh5ZWrlzcaFiytxaW--34" value="&lt;b&gt;&lt;font face=&quot;Times New Roman&quot; style=&quot;font-size: 20px;&quot;&gt;NVM&lt;/font&gt;&lt;/b&gt;" style="rounded=0;whiteSpace=wrap;html=1;" parent="1" vertex="1">
          <mxGeometry x="520" y="350" width="91" height="60" as="geometry" />
        </mxCell>
        <mxCell id="r5Kh5ZWrlzcaFiytxaW--35" value="&lt;b&gt;&lt;font face=&quot;宋体&quot;&gt;持久化/恢复&lt;/font&gt;&lt;/b&gt;" style="text;html=1;strokeColor=none;fillColor=none;align=center;verticalAlign=middle;whiteSpace=wrap;rounded=0;" parent="1" vertex="1">
          <mxGeometry x="577" y="291" width="80" height="30" as="geometry" />
        </mxCell>
        <mxCell id="r5Kh5ZWrlzcaFiytxaW--36" value="&lt;b&gt;&lt;font face=&quot;宋体&quot;&gt;迁移&lt;/font&gt;&lt;/b&gt;" style="rounded=0;whiteSpace=wrap;html=1;fillColor=none;" parent="1" vertex="1">
          <mxGeometry x="354" y="360" width="80" height="20" as="geometry" />
        </mxCell>
        <mxCell id="r5Kh5ZWrlzcaFiytxaW--37" value="&lt;b&gt;&lt;font face=&quot;宋体&quot;&gt;预取&lt;/font&gt;&lt;/b&gt;" style="rounded=0;whiteSpace=wrap;html=1;fillColor=none;" parent="1" vertex="1">
          <mxGeometry x="354" y="390" width="80" height="20" as="geometry" />
        </mxCell>
        <mxCell id="r5Kh5ZWrlzcaFiytxaW--39" value="&lt;font face=&quot;宋体&quot;&gt;&lt;b&gt;卸载/缓存&lt;/b&gt;&lt;/font&gt;" style="text;html=1;strokeColor=none;fillColor=none;align=center;verticalAlign=middle;whiteSpace=wrap;rounded=0;" parent="1" vertex="1">
          <mxGeometry x="127" y="290" width="68" height="30" as="geometry" />
        </mxCell>
        <mxCell id="r5Kh5ZWrlzcaFiytxaW--40" style="rounded=1;orthogonalLoop=1;jettySize=auto;html=1;startArrow=classic;exitX=0.84;exitY=1.004;exitDx=0;exitDy=0;exitPerimeter=0;" parent="1" source="r5Kh5ZWrlzcaFiytxaW--7" edge="1">
          <mxGeometry relative="1" as="geometry">
            <mxPoint x="576.8600000000001" y="276.27" as="sourcePoint" />
            <mxPoint x="578" y="350" as="targetPoint" />
          </mxGeometry>
        </mxCell>
        <mxCell id="r5Kh5ZWrlzcaFiytxaW--44" value="&lt;font size=&quot;1&quot; face=&quot;宋体&quot;&gt;&lt;b style=&quot;font-size: 18px;&quot;&gt;③&lt;/b&gt;&lt;/font&gt;&lt;font size=&quot;1&quot; face=&quot;宋体&quot;&gt;&lt;b style=&quot;font-size: 18px;&quot;&gt;异构内存动态迁移分配管理方案&lt;/b&gt;&lt;/font&gt;" style="text;html=1;strokeColor=none;fillColor=none;align=center;verticalAlign=middle;whiteSpace=wrap;rounded=0;" parent="1" vertex="1">
          <mxGeometry x="220" y="290" width="320" height="30" as="geometry" />
        </mxCell>
        <mxCell id="r5Kh5ZWrlzcaFiytxaW--45" value="&lt;font face=&quot;宋体&quot;&gt;&lt;b&gt;&lt;font style=&quot;font-size: 18px;&quot;&gt;②&lt;/font&gt;&lt;/b&gt;&lt;b&gt;&lt;font style=&quot;font-size: 18px;&quot;&gt;张量级GPU内存管理方案&lt;/font&gt;&lt;/b&gt;&lt;/font&gt;" style="text;html=1;strokeColor=none;fillColor=none;align=center;verticalAlign=middle;whiteSpace=wrap;rounded=0;" parent="1" vertex="1">
          <mxGeometry x="224" y="160" width="301.5" height="30" as="geometry" />
        </mxCell>
        <mxCell id="r5Kh5ZWrlzcaFiytxaW--47" value="&lt;font face=&quot;Times New Roman&quot; style=&quot;font-size: 20px;&quot;&gt;&lt;b&gt;DRAM&lt;/b&gt;&lt;/font&gt;" style="rounded=0;whiteSpace=wrap;html=1;" parent="1" vertex="1">
          <mxGeometry x="164" y="350" width="108" height="60" as="geometry" />
        </mxCell>
        <mxCell id="r5Kh5ZWrlzcaFiytxaW--48" value="&lt;b&gt;&lt;font face=&quot;宋体&quot;&gt;计算&lt;/font&gt;&lt;/b&gt;" style="text;html=1;strokeColor=none;fillColor=none;align=center;verticalAlign=middle;whiteSpace=wrap;rounded=0;" parent="1" vertex="1">
          <mxGeometry x="214" y="194" width="60" height="30" as="geometry" />
        </mxCell>
        <mxCell id="r5Kh5ZWrlzcaFiytxaW--49" value="&lt;b&gt;&lt;font face=&quot;宋体&quot;&gt;换入/换出&lt;/font&gt;&lt;/b&gt;" style="text;html=1;strokeColor=none;fillColor=none;align=center;verticalAlign=middle;whiteSpace=wrap;rounded=0;" parent="1" vertex="1">
          <mxGeometry x="372" y="203" width="66" height="30" as="geometry" />
        </mxCell>
        <mxCell id="r5Kh5ZWrlzcaFiytxaW--50" value="&lt;b&gt;&lt;font face=&quot;宋体&quot; style=&quot;font-size: 14px;&quot;&gt;异构内存&lt;/font&gt;&lt;/b&gt;" style="text;html=1;strokeColor=none;fillColor=none;align=center;verticalAlign=middle;whiteSpace=wrap;rounded=0;" parent="1" vertex="1">
          <mxGeometry x="110" y="324" width="70" height="30" as="geometry" />
        </mxCell>
        <mxCell id="r5Kh5ZWrlzcaFiytxaW--51" value="" style="rounded=0;whiteSpace=wrap;html=1;fillColor=#e1d5e7;strokeColor=#9673a6;" parent="1" vertex="1">
          <mxGeometry x="33" y="40" width="667" height="113" as="geometry" />
        </mxCell>
        <mxCell id="r5Kh5ZWrlzcaFiytxaW--52" style="edgeStyle=orthogonalEdgeStyle;rounded=1;orthogonalLoop=1;jettySize=auto;html=1;exitX=1;exitY=0.5;exitDx=0;exitDy=0;entryX=0;entryY=0.5;entryDx=0;entryDy=0;startArrow=classic;" parent="1" source="r5Kh5ZWrlzcaFiytxaW--68" target="r5Kh5ZWrlzcaFiytxaW--55" edge="1">
          <mxGeometry relative="1" as="geometry">
            <mxPoint x="246" y="100" as="sourcePoint" />
          </mxGeometry>
        </mxCell>
        <mxCell id="r5Kh5ZWrlzcaFiytxaW--54" style="edgeStyle=orthogonalEdgeStyle;rounded=1;orthogonalLoop=1;jettySize=auto;html=1;exitX=1;exitY=0.5;exitDx=0;exitDy=0;startArrow=classic;entryX=1.024;entryY=0.801;entryDx=0;entryDy=0;entryPerimeter=0;" parent="1" source="r5Kh5ZWrlzcaFiytxaW--55" target="r5Kh5ZWrlzcaFiytxaW--58" edge="1">
          <mxGeometry relative="1" as="geometry">
            <mxPoint x="530" y="100" as="targetPoint" />
          </mxGeometry>
        </mxCell>
        <mxCell id="r5Kh5ZWrlzcaFiytxaW--55" value="&lt;b style=&quot;border-color: var(--border-color); font-family: &amp;quot;Times New Roman&amp;quot;; font-size: 20px;&quot;&gt;块映射表&lt;/b&gt;" style="rounded=0;whiteSpace=wrap;html=1;fillColor=#CCCCCC;fontColor=#333333;strokeColor=#666666;" parent="1" vertex="1">
          <mxGeometry x="299.5" y="76" width="157" height="48" as="geometry" />
        </mxCell>
        <mxCell id="r5Kh5ZWrlzcaFiytxaW--57" value="&lt;b&gt;&lt;font face=&quot;宋体&quot;&gt;逻辑块号&lt;/font&gt;&lt;/b&gt;" style="text;html=1;strokeColor=none;fillColor=none;align=center;verticalAlign=middle;whiteSpace=wrap;rounded=0;" parent="1" vertex="1">
          <mxGeometry x="239.5" y="76" width="60" height="30" as="geometry" />
        </mxCell>
        <mxCell id="r5Kh5ZWrlzcaFiytxaW--58" value="&lt;font face=&quot;宋体&quot;&gt;&lt;b&gt;物理块号&lt;/b&gt;&lt;/font&gt;" style="text;html=1;strokeColor=none;fillColor=none;align=center;verticalAlign=middle;whiteSpace=wrap;rounded=0;" parent="1" vertex="1">
          <mxGeometry x="460" y="76" width="60" height="30" as="geometry" />
        </mxCell>
        <mxCell id="r5Kh5ZWrlzcaFiytxaW--59" value="&lt;font face=&quot;宋体&quot;&gt;&lt;b&gt;&lt;font style=&quot;font-size: 18px;&quot;&gt;①&lt;/font&gt;&lt;/b&gt;&lt;b&gt;&lt;font style=&quot;font-size: 18px;&quot;&gt;细粒度GPU键值缓存管理方案&lt;/font&gt;&lt;/b&gt;&lt;/font&gt;" style="text;html=1;strokeColor=none;fillColor=none;align=center;verticalAlign=middle;whiteSpace=wrap;rounded=0;" parent="1" vertex="1">
          <mxGeometry x="199" y="40" width="335" height="30" as="geometry" />
        </mxCell>
        <mxCell id="r5Kh5ZWrlzcaFiytxaW--60" value="&lt;b&gt;&lt;font face=&quot;宋体&quot;&gt;逻辑键值块&lt;/font&gt;&lt;/b&gt;" style="text;html=1;strokeColor=none;fillColor=none;align=center;verticalAlign=middle;whiteSpace=wrap;rounded=0;" parent="1" vertex="1">
          <mxGeometry x="130" y="126" width="84" height="30" as="geometry" />
        </mxCell>
        <mxCell id="r5Kh5ZWrlzcaFiytxaW--61" value="&lt;b&gt;&lt;font face=&quot;宋体&quot;&gt;物理键值块&lt;/font&gt;&lt;/b&gt;" style="text;html=1;strokeColor=none;fillColor=none;align=center;verticalAlign=middle;whiteSpace=wrap;rounded=0;" parent="1" vertex="1">
          <mxGeometry x="573" y="132" width="77" height="30" as="geometry" />
        </mxCell>
        <mxCell id="r5Kh5ZWrlzcaFiytxaW--62" value="" style="shape=table;startSize=0;container=1;collapsible=0;childLayout=tableLayout;fontFamily=Times New Roman;" parent="1" vertex="1">
          <mxGeometry x="113.5" y="70" width="123" height="60" as="geometry" />
        </mxCell>
        <mxCell id="r5Kh5ZWrlzcaFiytxaW--63" value="" style="shape=tableRow;horizontal=0;startSize=0;swimlaneHead=0;swimlaneBody=0;strokeColor=inherit;top=0;left=0;bottom=0;right=0;collapsible=0;dropTarget=0;fillColor=none;points=[[0,0.5],[1,0.5]];portConstraint=eastwest;" parent="r5Kh5ZWrlzcaFiytxaW--62" vertex="1">
          <mxGeometry width="123" height="20" as="geometry" />
        </mxCell>
        <mxCell id="r5Kh5ZWrlzcaFiytxaW--64" value="&lt;b&gt;&lt;font style=&quot;font-size: 16px;&quot; face=&quot;Times New Roman&quot;&gt;a&lt;/font&gt;&lt;/b&gt;" style="shape=partialRectangle;html=1;whiteSpace=wrap;connectable=0;strokeColor=inherit;overflow=hidden;fillColor=none;top=0;left=0;bottom=0;right=0;pointerEvents=1;spacing=0;" parent="r5Kh5ZWrlzcaFiytxaW--63" vertex="1">
          <mxGeometry width="31" height="20" as="geometry">
            <mxRectangle width="31" height="20" as="alternateBounds" />
          </mxGeometry>
        </mxCell>
        <mxCell id="r5Kh5ZWrlzcaFiytxaW--65" value="b" style="shape=partialRectangle;html=1;whiteSpace=wrap;connectable=0;strokeColor=inherit;overflow=hidden;fillColor=none;top=0;left=0;bottom=0;right=0;pointerEvents=1;fontFamily=Times New Roman;fontStyle=1;fontSize=16;spacing=0;" parent="r5Kh5ZWrlzcaFiytxaW--63" vertex="1">
          <mxGeometry x="31" width="31" height="20" as="geometry">
            <mxRectangle width="31" height="20" as="alternateBounds" />
          </mxGeometry>
        </mxCell>
        <mxCell id="r5Kh5ZWrlzcaFiytxaW--66" value="c" style="shape=partialRectangle;html=1;whiteSpace=wrap;connectable=0;strokeColor=inherit;overflow=hidden;fillColor=none;top=0;left=0;bottom=0;right=0;pointerEvents=1;fontFamily=Times New Roman;fontStyle=1;fontSize=16;spacing=0;" parent="r5Kh5ZWrlzcaFiytxaW--63" vertex="1">
          <mxGeometry x="62" width="31" height="20" as="geometry">
            <mxRectangle width="31" height="20" as="alternateBounds" />
          </mxGeometry>
        </mxCell>
        <mxCell id="r5Kh5ZWrlzcaFiytxaW--67" value="d" style="shape=partialRectangle;html=1;whiteSpace=wrap;connectable=0;strokeColor=inherit;overflow=hidden;fillColor=none;top=0;left=0;bottom=0;right=0;pointerEvents=1;fontFamily=Times New Roman;fontStyle=1;fontSize=16;spacing=0;" parent="r5Kh5ZWrlzcaFiytxaW--63" vertex="1">
          <mxGeometry x="93" width="30" height="20" as="geometry">
            <mxRectangle width="30" height="20" as="alternateBounds" />
          </mxGeometry>
        </mxCell>
        <mxCell id="r5Kh5ZWrlzcaFiytxaW--68" value="" style="shape=tableRow;horizontal=0;startSize=0;swimlaneHead=0;swimlaneBody=0;strokeColor=inherit;top=0;left=0;bottom=0;right=0;collapsible=0;dropTarget=0;fillColor=none;points=[[0,0.5],[1,0.5]];portConstraint=eastwest;" parent="r5Kh5ZWrlzcaFiytxaW--62" vertex="1">
          <mxGeometry y="20" width="123" height="21" as="geometry" />
        </mxCell>
        <mxCell id="r5Kh5ZWrlzcaFiytxaW--69" value="e" style="shape=partialRectangle;html=1;whiteSpace=wrap;connectable=0;strokeColor=inherit;overflow=hidden;fillColor=none;top=0;left=0;bottom=0;right=0;pointerEvents=1;fontFamily=Times New Roman;fontStyle=1;fontSize=16;spacing=0;" parent="r5Kh5ZWrlzcaFiytxaW--68" vertex="1">
          <mxGeometry width="31" height="21" as="geometry">
            <mxRectangle width="31" height="21" as="alternateBounds" />
          </mxGeometry>
        </mxCell>
        <mxCell id="r5Kh5ZWrlzcaFiytxaW--70" value="f" style="shape=partialRectangle;html=1;whiteSpace=wrap;connectable=0;strokeColor=inherit;overflow=hidden;fillColor=none;top=0;left=0;bottom=0;right=0;pointerEvents=1;fontFamily=Times New Roman;fontStyle=1;fontSize=16;spacing=0;" parent="r5Kh5ZWrlzcaFiytxaW--68" vertex="1">
          <mxGeometry x="31" width="31" height="21" as="geometry">
            <mxRectangle width="31" height="21" as="alternateBounds" />
          </mxGeometry>
        </mxCell>
        <mxCell id="r5Kh5ZWrlzcaFiytxaW--71" value="g" style="shape=partialRectangle;html=1;whiteSpace=wrap;connectable=0;strokeColor=inherit;overflow=hidden;fillColor=none;top=0;left=0;bottom=0;right=0;pointerEvents=1;fontFamily=Times New Roman;fontStyle=1;fontSize=16;spacing=0;spacingTop=-4;" parent="r5Kh5ZWrlzcaFiytxaW--68" vertex="1">
          <mxGeometry x="62" width="31" height="21" as="geometry">
            <mxRectangle width="31" height="21" as="alternateBounds" />
          </mxGeometry>
        </mxCell>
        <mxCell id="r5Kh5ZWrlzcaFiytxaW--72" value="h" style="shape=partialRectangle;html=1;whiteSpace=wrap;connectable=0;strokeColor=inherit;overflow=hidden;fillColor=none;top=0;left=0;bottom=0;right=0;pointerEvents=1;fontFamily=Times New Roman;fontStyle=1;fontSize=16;spacing=0;" parent="r5Kh5ZWrlzcaFiytxaW--68" vertex="1">
          <mxGeometry x="93" width="30" height="21" as="geometry">
            <mxRectangle width="30" height="21" as="alternateBounds" />
          </mxGeometry>
        </mxCell>
        <mxCell id="r5Kh5ZWrlzcaFiytxaW--73" value="" style="shape=tableRow;horizontal=0;startSize=0;swimlaneHead=0;swimlaneBody=0;strokeColor=inherit;top=0;left=0;bottom=0;right=0;collapsible=0;dropTarget=0;fillColor=none;points=[[0,0.5],[1,0.5]];portConstraint=eastwest;" parent="r5Kh5ZWrlzcaFiytxaW--62" vertex="1">
          <mxGeometry y="41" width="123" height="19" as="geometry" />
        </mxCell>
        <mxCell id="r5Kh5ZWrlzcaFiytxaW--74" value="i" style="shape=partialRectangle;html=1;whiteSpace=wrap;connectable=0;strokeColor=inherit;overflow=hidden;fillColor=none;top=0;left=0;bottom=0;right=0;pointerEvents=1;fontFamily=Times New Roman;fontStyle=1;fontSize=16;spacing=0;" parent="r5Kh5ZWrlzcaFiytxaW--73" vertex="1">
          <mxGeometry width="31" height="19" as="geometry">
            <mxRectangle width="31" height="19" as="alternateBounds" />
          </mxGeometry>
        </mxCell>
        <mxCell id="r5Kh5ZWrlzcaFiytxaW--75" value="" style="shape=partialRectangle;html=1;whiteSpace=wrap;connectable=0;strokeColor=inherit;overflow=hidden;fillColor=none;top=0;left=0;bottom=0;right=0;pointerEvents=1;" parent="r5Kh5ZWrlzcaFiytxaW--73" vertex="1">
          <mxGeometry x="31" width="31" height="19" as="geometry">
            <mxRectangle width="31" height="19" as="alternateBounds" />
          </mxGeometry>
        </mxCell>
        <mxCell id="r5Kh5ZWrlzcaFiytxaW--76" value="" style="shape=partialRectangle;html=1;whiteSpace=wrap;connectable=0;strokeColor=inherit;overflow=hidden;fillColor=none;top=0;left=0;bottom=0;right=0;pointerEvents=1;" parent="r5Kh5ZWrlzcaFiytxaW--73" vertex="1">
          <mxGeometry x="62" width="31" height="19" as="geometry">
            <mxRectangle width="31" height="19" as="alternateBounds" />
          </mxGeometry>
        </mxCell>
        <mxCell id="r5Kh5ZWrlzcaFiytxaW--77" value="" style="shape=partialRectangle;html=1;whiteSpace=wrap;connectable=0;strokeColor=inherit;overflow=hidden;fillColor=none;top=0;left=0;bottom=0;right=0;pointerEvents=1;" parent="r5Kh5ZWrlzcaFiytxaW--73" vertex="1">
          <mxGeometry x="93" width="30" height="19" as="geometry">
            <mxRectangle width="30" height="19" as="alternateBounds" />
          </mxGeometry>
        </mxCell>
        <mxCell id="r5Kh5ZWrlzcaFiytxaW--78" value="" style="shape=table;startSize=0;container=1;collapsible=0;childLayout=tableLayout;labelPosition=center;verticalLabelPosition=top;align=center;verticalAlign=bottom;spacing=-2;spacingLeft=0;fontFamily=Times New Roman;" parent="1" vertex="1">
          <mxGeometry x="540" y="60" width="130" height="80" as="geometry" />
        </mxCell>
        <mxCell id="r5Kh5ZWrlzcaFiytxaW--79" value="" style="shape=tableRow;horizontal=0;startSize=0;swimlaneHead=0;swimlaneBody=0;strokeColor=inherit;top=0;left=0;bottom=0;right=0;collapsible=0;dropTarget=0;fillColor=none;points=[[0,0.5],[1,0.5]];portConstraint=eastwest;" parent="r5Kh5ZWrlzcaFiytxaW--78" vertex="1">
          <mxGeometry width="130" height="16" as="geometry" />
        </mxCell>
        <mxCell id="r5Kh5ZWrlzcaFiytxaW--80" value="&lt;div style=&quot;line-height: 50%;&quot;&gt;&lt;b style=&quot;font-family: &amp;quot;Times New Roman&amp;quot;; background-color: initial;&quot;&gt;&lt;font style=&quot;font-size: 16px;&quot;&gt;e&lt;/font&gt;&lt;/b&gt;&lt;/div&gt;" style="shape=partialRectangle;html=1;whiteSpace=wrap;connectable=0;strokeColor=inherit;overflow=hidden;fillColor=none;top=0;left=0;bottom=0;right=0;pointerEvents=1;align=center;" parent="r5Kh5ZWrlzcaFiytxaW--79" vertex="1">
          <mxGeometry width="32" height="16" as="geometry">
            <mxRectangle width="32" height="16" as="alternateBounds" />
          </mxGeometry>
        </mxCell>
        <mxCell id="r5Kh5ZWrlzcaFiytxaW--81" value="&lt;p style=&quot;line-height: 50%;&quot;&gt;&lt;font face=&quot;Times New Roman&quot;&gt;&lt;span style=&quot;font-size: 16px;&quot;&gt;&lt;b&gt;f&lt;/b&gt;&lt;/span&gt;&lt;/font&gt;&lt;/p&gt;" style="shape=partialRectangle;html=1;whiteSpace=wrap;connectable=0;strokeColor=inherit;overflow=hidden;fillColor=none;top=0;left=0;bottom=0;right=0;pointerEvents=1;spacing=-6;" parent="r5Kh5ZWrlzcaFiytxaW--79" vertex="1">
          <mxGeometry x="32" width="33" height="16" as="geometry">
            <mxRectangle width="33" height="16" as="alternateBounds" />
          </mxGeometry>
        </mxCell>
        <mxCell id="r5Kh5ZWrlzcaFiytxaW--82" value="&lt;font face=&quot;Times New Roman&quot;&gt;&lt;span style=&quot;font-size: 16px;&quot;&gt;&lt;b&gt;g&lt;/b&gt;&lt;/span&gt;&lt;/font&gt;" style="shape=partialRectangle;html=1;whiteSpace=wrap;connectable=0;strokeColor=inherit;overflow=hidden;fillColor=none;top=0;left=0;bottom=0;right=0;pointerEvents=1;spacing=-2;spacingTop=-4;" parent="r5Kh5ZWrlzcaFiytxaW--79" vertex="1">
          <mxGeometry x="65" width="33" height="16" as="geometry">
            <mxRectangle width="33" height="16" as="alternateBounds" />
          </mxGeometry>
        </mxCell>
        <mxCell id="r5Kh5ZWrlzcaFiytxaW--83" value="&lt;font face=&quot;Times New Roman&quot;&gt;&lt;span style=&quot;font-size: 16px;&quot;&gt;&lt;b&gt;h&lt;/b&gt;&lt;/span&gt;&lt;/font&gt;" style="shape=partialRectangle;html=1;whiteSpace=wrap;connectable=0;strokeColor=inherit;overflow=hidden;fillColor=none;top=0;left=0;bottom=0;right=0;pointerEvents=1;spacing=-2;" parent="r5Kh5ZWrlzcaFiytxaW--79" vertex="1">
          <mxGeometry x="98" width="32" height="16" as="geometry">
            <mxRectangle width="32" height="16" as="alternateBounds" />
          </mxGeometry>
        </mxCell>
        <mxCell id="r5Kh5ZWrlzcaFiytxaW--84" value="" style="shape=tableRow;horizontal=0;startSize=0;swimlaneHead=0;swimlaneBody=0;strokeColor=inherit;top=0;left=0;bottom=0;right=0;collapsible=0;dropTarget=0;fillColor=none;points=[[0,0.5],[1,0.5]];portConstraint=eastwest;" parent="r5Kh5ZWrlzcaFiytxaW--78" vertex="1">
          <mxGeometry y="16" width="130" height="16" as="geometry" />
        </mxCell>
        <mxCell id="r5Kh5ZWrlzcaFiytxaW--85" value="" style="shape=partialRectangle;html=1;whiteSpace=wrap;connectable=0;strokeColor=inherit;overflow=hidden;fillColor=none;top=0;left=0;bottom=0;right=0;pointerEvents=1;" parent="r5Kh5ZWrlzcaFiytxaW--84" vertex="1">
          <mxGeometry width="32" height="16" as="geometry">
            <mxRectangle width="32" height="16" as="alternateBounds" />
          </mxGeometry>
        </mxCell>
        <mxCell id="r5Kh5ZWrlzcaFiytxaW--86" value="" style="shape=partialRectangle;html=1;whiteSpace=wrap;connectable=0;strokeColor=inherit;overflow=hidden;fillColor=none;top=0;left=0;bottom=0;right=0;pointerEvents=1;" parent="r5Kh5ZWrlzcaFiytxaW--84" vertex="1">
          <mxGeometry x="32" width="33" height="16" as="geometry">
            <mxRectangle width="33" height="16" as="alternateBounds" />
          </mxGeometry>
        </mxCell>
        <mxCell id="r5Kh5ZWrlzcaFiytxaW--87" value="" style="shape=partialRectangle;html=1;whiteSpace=wrap;connectable=0;strokeColor=inherit;overflow=hidden;fillColor=none;top=0;left=0;bottom=0;right=0;pointerEvents=1;" parent="r5Kh5ZWrlzcaFiytxaW--84" vertex="1">
          <mxGeometry x="65" width="33" height="16" as="geometry">
            <mxRectangle width="33" height="16" as="alternateBounds" />
          </mxGeometry>
        </mxCell>
        <mxCell id="r5Kh5ZWrlzcaFiytxaW--88" value="" style="shape=partialRectangle;html=1;whiteSpace=wrap;connectable=0;strokeColor=inherit;overflow=hidden;fillColor=none;top=0;left=0;bottom=0;right=0;pointerEvents=1;" parent="r5Kh5ZWrlzcaFiytxaW--84" vertex="1">
          <mxGeometry x="98" width="32" height="16" as="geometry">
            <mxRectangle width="32" height="16" as="alternateBounds" />
          </mxGeometry>
        </mxCell>
        <mxCell id="r5Kh5ZWrlzcaFiytxaW--89" value="" style="shape=tableRow;horizontal=0;startSize=0;swimlaneHead=0;swimlaneBody=0;strokeColor=inherit;top=0;left=0;bottom=0;right=0;collapsible=0;dropTarget=0;fillColor=none;points=[[0,0.5],[1,0.5]];portConstraint=eastwest;" parent="r5Kh5ZWrlzcaFiytxaW--78" vertex="1">
          <mxGeometry y="32" width="130" height="16" as="geometry" />
        </mxCell>
        <mxCell id="r5Kh5ZWrlzcaFiytxaW--90" value="&lt;font face=&quot;Times New Roman&quot;&gt;&lt;span style=&quot;font-size: 16px;&quot;&gt;&lt;b&gt;i&lt;/b&gt;&lt;/span&gt;&lt;/font&gt;" style="shape=partialRectangle;html=1;whiteSpace=wrap;connectable=0;strokeColor=inherit;overflow=hidden;fillColor=none;top=0;left=0;bottom=0;right=0;pointerEvents=1;spacing=-2;" parent="r5Kh5ZWrlzcaFiytxaW--89" vertex="1">
          <mxGeometry width="32" height="16" as="geometry">
            <mxRectangle width="32" height="16" as="alternateBounds" />
          </mxGeometry>
        </mxCell>
        <mxCell id="r5Kh5ZWrlzcaFiytxaW--91" value="" style="shape=partialRectangle;html=1;whiteSpace=wrap;connectable=0;strokeColor=inherit;overflow=hidden;fillColor=none;top=0;left=0;bottom=0;right=0;pointerEvents=1;spacingLeft=0;spacingTop=-1;" parent="r5Kh5ZWrlzcaFiytxaW--89" vertex="1">
          <mxGeometry x="32" width="33" height="16" as="geometry">
            <mxRectangle width="33" height="16" as="alternateBounds" />
          </mxGeometry>
        </mxCell>
        <mxCell id="r5Kh5ZWrlzcaFiytxaW--92" value="" style="shape=partialRectangle;html=1;whiteSpace=wrap;connectable=0;strokeColor=inherit;overflow=hidden;fillColor=none;top=0;left=0;bottom=0;right=0;pointerEvents=1;" parent="r5Kh5ZWrlzcaFiytxaW--89" vertex="1">
          <mxGeometry x="65" width="33" height="16" as="geometry">
            <mxRectangle width="33" height="16" as="alternateBounds" />
          </mxGeometry>
        </mxCell>
        <mxCell id="r5Kh5ZWrlzcaFiytxaW--93" value="" style="shape=partialRectangle;html=1;whiteSpace=wrap;connectable=0;strokeColor=inherit;overflow=hidden;fillColor=none;top=0;left=0;bottom=0;right=0;pointerEvents=1;" parent="r5Kh5ZWrlzcaFiytxaW--89" vertex="1">
          <mxGeometry x="98" width="32" height="16" as="geometry">
            <mxRectangle width="32" height="16" as="alternateBounds" />
          </mxGeometry>
        </mxCell>
        <mxCell id="r5Kh5ZWrlzcaFiytxaW--94" value="" style="shape=tableRow;horizontal=0;startSize=0;swimlaneHead=0;swimlaneBody=0;strokeColor=inherit;top=0;left=0;bottom=0;right=0;collapsible=0;dropTarget=0;fillColor=none;points=[[0,0.5],[1,0.5]];portConstraint=eastwest;" parent="r5Kh5ZWrlzcaFiytxaW--78" vertex="1">
          <mxGeometry y="48" width="130" height="16" as="geometry" />
        </mxCell>
        <mxCell id="r5Kh5ZWrlzcaFiytxaW--95" value="" style="shape=partialRectangle;html=1;whiteSpace=wrap;connectable=0;strokeColor=inherit;overflow=hidden;fillColor=none;top=0;left=0;bottom=0;right=0;pointerEvents=1;" parent="r5Kh5ZWrlzcaFiytxaW--94" vertex="1">
          <mxGeometry width="32" height="16" as="geometry">
            <mxRectangle width="32" height="16" as="alternateBounds" />
          </mxGeometry>
        </mxCell>
        <mxCell id="r5Kh5ZWrlzcaFiytxaW--96" value="" style="shape=partialRectangle;html=1;whiteSpace=wrap;connectable=0;strokeColor=inherit;overflow=hidden;fillColor=none;top=0;left=0;bottom=0;right=0;pointerEvents=1;" parent="r5Kh5ZWrlzcaFiytxaW--94" vertex="1">
          <mxGeometry x="32" width="33" height="16" as="geometry">
            <mxRectangle width="33" height="16" as="alternateBounds" />
          </mxGeometry>
        </mxCell>
        <mxCell id="r5Kh5ZWrlzcaFiytxaW--97" value="" style="shape=partialRectangle;html=1;whiteSpace=wrap;connectable=0;strokeColor=inherit;overflow=hidden;fillColor=none;top=0;left=0;bottom=0;right=0;pointerEvents=1;" parent="r5Kh5ZWrlzcaFiytxaW--94" vertex="1">
          <mxGeometry x="65" width="33" height="16" as="geometry">
            <mxRectangle width="33" height="16" as="alternateBounds" />
          </mxGeometry>
        </mxCell>
        <mxCell id="r5Kh5ZWrlzcaFiytxaW--98" value="" style="shape=partialRectangle;html=1;whiteSpace=wrap;connectable=0;strokeColor=inherit;overflow=hidden;fillColor=none;top=0;left=0;bottom=0;right=0;pointerEvents=1;" parent="r5Kh5ZWrlzcaFiytxaW--94" vertex="1">
          <mxGeometry x="98" width="32" height="16" as="geometry">
            <mxRectangle width="32" height="16" as="alternateBounds" />
          </mxGeometry>
        </mxCell>
        <mxCell id="r5Kh5ZWrlzcaFiytxaW--99" value="" style="shape=tableRow;horizontal=0;startSize=0;swimlaneHead=0;swimlaneBody=0;strokeColor=inherit;top=0;left=0;bottom=0;right=0;collapsible=0;dropTarget=0;fillColor=none;points=[[0,0.5],[1,0.5]];portConstraint=eastwest;" parent="r5Kh5ZWrlzcaFiytxaW--78" vertex="1">
          <mxGeometry y="64" width="130" height="16" as="geometry" />
        </mxCell>
        <mxCell id="r5Kh5ZWrlzcaFiytxaW--100" value="&lt;b style=&quot;border-color: var(--border-color);&quot;&gt;&lt;font style=&quot;border-color: var(--border-color); font-size: 16px;&quot; face=&quot;Times New Roman&quot;&gt;a&lt;/font&gt;&lt;/b&gt;" style="shape=partialRectangle;html=1;whiteSpace=wrap;connectable=0;strokeColor=inherit;overflow=hidden;fillColor=none;top=0;left=0;bottom=0;right=0;pointerEvents=1;spacing=-2;spacingTop=-2;" parent="r5Kh5ZWrlzcaFiytxaW--99" vertex="1">
          <mxGeometry width="32" height="16" as="geometry">
            <mxRectangle width="32" height="16" as="alternateBounds" />
          </mxGeometry>
        </mxCell>
        <mxCell id="r5Kh5ZWrlzcaFiytxaW--101" value="&lt;font face=&quot;Times New Roman&quot;&gt;&lt;span style=&quot;font-size: 16px;&quot;&gt;&lt;b&gt;b&lt;/b&gt;&lt;/span&gt;&lt;/font&gt;" style="shape=partialRectangle;html=1;whiteSpace=wrap;connectable=0;strokeColor=inherit;overflow=hidden;fillColor=none;top=0;left=0;bottom=0;right=0;pointerEvents=1;spacing=-2;" parent="r5Kh5ZWrlzcaFiytxaW--99" vertex="1">
          <mxGeometry x="32" width="33" height="16" as="geometry">
            <mxRectangle width="33" height="16" as="alternateBounds" />
          </mxGeometry>
        </mxCell>
        <mxCell id="r5Kh5ZWrlzcaFiytxaW--102" value="&lt;font face=&quot;Times New Roman&quot;&gt;&lt;span style=&quot;font-size: 16px;&quot;&gt;&lt;b&gt;c&lt;/b&gt;&lt;/span&gt;&lt;/font&gt;" style="shape=partialRectangle;html=1;whiteSpace=wrap;connectable=0;strokeColor=inherit;overflow=hidden;fillColor=none;top=0;left=0;bottom=0;right=0;pointerEvents=1;spacing=-2;spacingTop=-2;" parent="r5Kh5ZWrlzcaFiytxaW--99" vertex="1">
          <mxGeometry x="65" width="33" height="16" as="geometry">
            <mxRectangle width="33" height="16" as="alternateBounds" />
          </mxGeometry>
        </mxCell>
        <mxCell id="r5Kh5ZWrlzcaFiytxaW--103" value="&lt;font face=&quot;Times New Roman&quot;&gt;&lt;span style=&quot;font-size: 16px;&quot;&gt;&lt;b&gt;d&lt;/b&gt;&lt;/span&gt;&lt;/font&gt;" style="shape=partialRectangle;html=1;whiteSpace=wrap;connectable=0;strokeColor=inherit;overflow=hidden;fillColor=none;top=0;left=0;bottom=0;right=0;pointerEvents=1;spacing=-2;" parent="r5Kh5ZWrlzcaFiytxaW--99" vertex="1">
          <mxGeometry x="98" width="32" height="16" as="geometry">
            <mxRectangle width="32" height="16" as="alternateBounds" />
          </mxGeometry>
        </mxCell>
        <mxCell id="r5Kh5ZWrlzcaFiytxaW--6" style="rounded=1;orthogonalLoop=1;jettySize=auto;html=1;exitX=0.721;exitY=-0.01;exitDx=0;exitDy=0;entryX=0.211;entryY=0.984;entryDx=0;entryDy=0;entryPerimeter=0;shape=connector;startArrow=classic;exitPerimeter=0;" parent="1" target="r5Kh5ZWrlzcaFiytxaW--99" edge="1">
          <mxGeometry relative="1" as="geometry">
            <mxPoint x="567.4000000000001" y="154.02300000000002" as="targetPoint" />
            <mxPoint x="567.1800000000001" y="185.10000000000002" as="sourcePoint" />
          </mxGeometry>
        </mxCell>
        <mxCell id="r5Kh5ZWrlzcaFiytxaW--104" value="" style="shape=table;startSize=0;container=1;collapsible=0;childLayout=tableLayout;fillColor=none;strokeColor=none;" parent="1" vertex="1">
          <mxGeometry x="519" y="58" width="20" height="80" as="geometry" />
        </mxCell>
        <mxCell id="r5Kh5ZWrlzcaFiytxaW--105" value="" style="shape=tableRow;horizontal=0;startSize=0;swimlaneHead=0;swimlaneBody=0;strokeColor=inherit;top=0;left=0;bottom=0;right=0;collapsible=0;dropTarget=0;fillColor=none;points=[[0,0.5],[1,0.5]];portConstraint=eastwest;" parent="r5Kh5ZWrlzcaFiytxaW--104" vertex="1">
          <mxGeometry width="20" height="16" as="geometry" />
        </mxCell>
        <mxCell id="r5Kh5ZWrlzcaFiytxaW--106" value="&lt;font face=&quot;宋体&quot; style=&quot;font-size: 10px;&quot;&gt;&lt;b&gt;块0&lt;/b&gt;&lt;/font&gt;" style="shape=partialRectangle;html=1;whiteSpace=wrap;connectable=0;strokeColor=inherit;overflow=hidden;fillColor=none;top=0;left=0;bottom=0;right=0;pointerEvents=1;" parent="r5Kh5ZWrlzcaFiytxaW--105" vertex="1">
          <mxGeometry width="20" height="16" as="geometry">
            <mxRectangle width="20" height="16" as="alternateBounds" />
          </mxGeometry>
        </mxCell>
        <mxCell id="r5Kh5ZWrlzcaFiytxaW--107" value="" style="shape=tableRow;horizontal=0;startSize=0;swimlaneHead=0;swimlaneBody=0;strokeColor=inherit;top=0;left=0;bottom=0;right=0;collapsible=0;dropTarget=0;fillColor=none;points=[[0,0.5],[1,0.5]];portConstraint=eastwest;" parent="r5Kh5ZWrlzcaFiytxaW--104" vertex="1">
          <mxGeometry y="16" width="20" height="16" as="geometry" />
        </mxCell>
        <mxCell id="r5Kh5ZWrlzcaFiytxaW--108" value="&lt;b style=&quot;border-color: var(--border-color); font-family: 宋体; font-size: 10px;&quot;&gt;块1&lt;/b&gt;" style="shape=partialRectangle;html=1;whiteSpace=wrap;connectable=0;strokeColor=inherit;overflow=hidden;fillColor=none;top=0;left=0;bottom=0;right=0;pointerEvents=1;" parent="r5Kh5ZWrlzcaFiytxaW--107" vertex="1">
          <mxGeometry width="20" height="16" as="geometry">
            <mxRectangle width="20" height="16" as="alternateBounds" />
          </mxGeometry>
        </mxCell>
        <mxCell id="r5Kh5ZWrlzcaFiytxaW--109" value="" style="shape=tableRow;horizontal=0;startSize=0;swimlaneHead=0;swimlaneBody=0;strokeColor=inherit;top=0;left=0;bottom=0;right=0;collapsible=0;dropTarget=0;fillColor=none;points=[[0,0.5],[1,0.5]];portConstraint=eastwest;" parent="r5Kh5ZWrlzcaFiytxaW--104" vertex="1">
          <mxGeometry y="32" width="20" height="16" as="geometry" />
        </mxCell>
        <mxCell id="r5Kh5ZWrlzcaFiytxaW--110" value="&lt;b style=&quot;border-color: var(--border-color); font-family: 宋体; font-size: 10px;&quot;&gt;块2&lt;/b&gt;" style="shape=partialRectangle;html=1;whiteSpace=wrap;connectable=0;strokeColor=inherit;overflow=hidden;fillColor=none;top=0;left=0;bottom=0;right=0;pointerEvents=1;" parent="r5Kh5ZWrlzcaFiytxaW--109" vertex="1">
          <mxGeometry width="20" height="16" as="geometry">
            <mxRectangle width="20" height="16" as="alternateBounds" />
          </mxGeometry>
        </mxCell>
        <mxCell id="r5Kh5ZWrlzcaFiytxaW--111" value="" style="shape=tableRow;horizontal=0;startSize=0;swimlaneHead=0;swimlaneBody=0;strokeColor=inherit;top=0;left=0;bottom=0;right=0;collapsible=0;dropTarget=0;fillColor=none;points=[[0,0.5],[1,0.5]];portConstraint=eastwest;" parent="r5Kh5ZWrlzcaFiytxaW--104" vertex="1">
          <mxGeometry y="48" width="20" height="16" as="geometry" />
        </mxCell>
        <mxCell id="r5Kh5ZWrlzcaFiytxaW--112" value="&lt;b style=&quot;border-color: var(--border-color); font-family: 宋体; font-size: 10px;&quot;&gt;块3&lt;/b&gt;" style="shape=partialRectangle;html=1;whiteSpace=wrap;connectable=0;strokeColor=inherit;overflow=hidden;fillColor=none;top=0;left=0;bottom=0;right=0;pointerEvents=1;" parent="r5Kh5ZWrlzcaFiytxaW--111" vertex="1">
          <mxGeometry width="20" height="16" as="geometry">
            <mxRectangle width="20" height="16" as="alternateBounds" />
          </mxGeometry>
        </mxCell>
        <mxCell id="r5Kh5ZWrlzcaFiytxaW--113" value="" style="shape=tableRow;horizontal=0;startSize=0;swimlaneHead=0;swimlaneBody=0;strokeColor=inherit;top=0;left=0;bottom=0;right=0;collapsible=0;dropTarget=0;fillColor=none;points=[[0,0.5],[1,0.5]];portConstraint=eastwest;" parent="r5Kh5ZWrlzcaFiytxaW--104" vertex="1">
          <mxGeometry y="64" width="20" height="16" as="geometry" />
        </mxCell>
        <mxCell id="r5Kh5ZWrlzcaFiytxaW--114" value="&lt;b style=&quot;border-color: var(--border-color); font-family: 宋体; font-size: 10px;&quot;&gt;块4&lt;/b&gt;" style="shape=partialRectangle;html=1;whiteSpace=wrap;connectable=0;strokeColor=inherit;overflow=hidden;fillColor=none;top=0;left=0;bottom=0;right=0;pointerEvents=1;" parent="r5Kh5ZWrlzcaFiytxaW--113" vertex="1">
          <mxGeometry width="20" height="16" as="geometry">
            <mxRectangle width="20" height="16" as="alternateBounds" />
          </mxGeometry>
        </mxCell>
        <mxCell id="r5Kh5ZWrlzcaFiytxaW--115" value="" style="shape=table;startSize=0;container=1;collapsible=0;childLayout=tableLayout;fillColor=none;strokeColor=none;" parent="1" vertex="1">
          <mxGeometry x="93.5" y="70" width="20" height="60" as="geometry" />
        </mxCell>
        <mxCell id="r5Kh5ZWrlzcaFiytxaW--116" value="" style="shape=tableRow;horizontal=0;startSize=0;swimlaneHead=0;swimlaneBody=0;strokeColor=inherit;top=0;left=0;bottom=0;right=0;collapsible=0;dropTarget=0;fillColor=none;points=[[0,0.5],[1,0.5]];portConstraint=eastwest;" parent="r5Kh5ZWrlzcaFiytxaW--115" vertex="1">
          <mxGeometry width="20" height="20" as="geometry" />
        </mxCell>
        <mxCell id="r5Kh5ZWrlzcaFiytxaW--117" value="&lt;font face=&quot;宋体&quot; style=&quot;font-size: 10px;&quot;&gt;&lt;b&gt;块0&lt;/b&gt;&lt;/font&gt;" style="shape=partialRectangle;html=1;whiteSpace=wrap;connectable=0;strokeColor=inherit;overflow=hidden;fillColor=none;top=0;left=0;bottom=0;right=0;pointerEvents=1;" parent="r5Kh5ZWrlzcaFiytxaW--116" vertex="1">
          <mxGeometry width="20" height="20" as="geometry">
            <mxRectangle width="20" height="20" as="alternateBounds" />
          </mxGeometry>
        </mxCell>
        <mxCell id="r5Kh5ZWrlzcaFiytxaW--118" value="" style="shape=tableRow;horizontal=0;startSize=0;swimlaneHead=0;swimlaneBody=0;strokeColor=inherit;top=0;left=0;bottom=0;right=0;collapsible=0;dropTarget=0;fillColor=none;points=[[0,0.5],[1,0.5]];portConstraint=eastwest;" parent="r5Kh5ZWrlzcaFiytxaW--115" vertex="1">
          <mxGeometry y="20" width="20" height="20" as="geometry" />
        </mxCell>
        <mxCell id="r5Kh5ZWrlzcaFiytxaW--119" value="&lt;b style=&quot;border-color: var(--border-color); font-family: 宋体; font-size: 10px;&quot;&gt;块1&lt;/b&gt;" style="shape=partialRectangle;html=1;whiteSpace=wrap;connectable=0;strokeColor=inherit;overflow=hidden;fillColor=none;top=0;left=0;bottom=0;right=0;pointerEvents=1;" parent="r5Kh5ZWrlzcaFiytxaW--118" vertex="1">
          <mxGeometry width="20" height="20" as="geometry">
            <mxRectangle width="20" height="20" as="alternateBounds" />
          </mxGeometry>
        </mxCell>
        <mxCell id="r5Kh5ZWrlzcaFiytxaW--120" value="" style="shape=tableRow;horizontal=0;startSize=0;swimlaneHead=0;swimlaneBody=0;strokeColor=inherit;top=0;left=0;bottom=0;right=0;collapsible=0;dropTarget=0;fillColor=none;points=[[0,0.5],[1,0.5]];portConstraint=eastwest;" parent="r5Kh5ZWrlzcaFiytxaW--115" vertex="1">
          <mxGeometry y="40" width="20" height="20" as="geometry" />
        </mxCell>
        <mxCell id="r5Kh5ZWrlzcaFiytxaW--121" value="&lt;b style=&quot;border-color: var(--border-color); font-family: 宋体; font-size: 10px;&quot;&gt;块2&lt;/b&gt;" style="shape=partialRectangle;html=1;whiteSpace=wrap;connectable=0;strokeColor=inherit;overflow=hidden;fillColor=none;top=0;left=0;bottom=0;right=0;pointerEvents=1;" parent="r5Kh5ZWrlzcaFiytxaW--120" vertex="1">
          <mxGeometry width="20" height="20" as="geometry">
            <mxRectangle width="20" height="20" as="alternateBounds" />
          </mxGeometry>
        </mxCell>
      </root>
    </mxGraphModel>
  </diagram>
</mxfile>
